<!--?xml version="1.0" encoding="utf-8"?-->
<!-- Generator: Adobe Illustrator 15.1.0, SVG Export Plug-In . SVG Version: 6.00 Build 0)  -->

<svg version="1.1" id="_x32_" xmlns="http://www.w3.org/2000/svg" xmlns:xlink="http://www.w3.org/1999/xlink" x="0px" y="0px" width="512px" height="512px" viewBox="0 0 512 512" style="width: 100%; height: 100%; opacity: 1;" xml:space="preserve">
<style type="text/css">

	.st0{fill:#4B4B4B;}

</style>
<g>
	<polygon class="st0" points="355.469,163.969 349.719,180.563 361.031,180.563 	" style="fill: rgb(58, 171, 210);"></polygon>
	<path class="st0" d="M319.938,167.531c1.047-0.922,1.594-2.219,1.594-3.828c0-1.625-0.547-2.906-1.594-3.844
		c-1.031-0.953-2.469-1.422-4.313-1.422h-8.719v10.531h8.719C317.469,168.969,318.906,168.5,319.938,167.531z" style="fill: rgb(58, 171, 210);"></path>
	<path class="st0" d="M466.656,88H45.344C20.313,88,0,108.313,0,133.344v245.313C0,403.688,20.313,424,45.344,424h421.313
		C491.688,424,512,403.688,512,378.656V133.344C512,108.313,491.688,88,466.656,88z M426.594,150.5h8.906v19.875l16.063-19.875
		h10.844l-15.125,18.141l16.219,27.484h-10.391l-11.719-20.75l-5.891,7.031v13.719h-8.906V150.5z M381.031,150.5h7.953
		l18.078,27.938V150.5h8.875v45.625h-7.922l-18.078-28v28h-8.906V150.5z M351.75,150.5h7l16.641,45.625h-9.297l-2.672-8.078h-16.203
		l-2.766,8.078h-9.297L351.75,150.5z M298,150.5h18.328c2.141,0,4.078,0.313,5.828,0.906s3.25,1.438,4.438,2.531
		c1.219,1.078,2.172,2.391,2.828,3.938c0.672,1.531,1,3.25,1,5.188c0,4.359-1.891,7.578-5.641,9.688
		c0.906,0.469,1.578,0.875,2.063,1.219c0.469,0.328,0.938,0.719,1.406,1.219c0.969,1.047,1.688,2.219,2.156,3.5
		c0.438,1.281,0.656,2.75,0.656,4.375c0,2-0.313,3.813-0.969,5.406c-0.625,1.594-1.563,2.969-2.781,4.094s-2.688,2.016-4.438,2.625
		c-1.719,0.625-3.656,0.938-5.781,0.938H298V150.5z M51.969,198.859c0-8.219,6.656-14.891,14.875-14.891h18.375v23.625h-33.25
		V198.859z M51.969,214.594h33.25v21.875h-33.25V214.594z M51.969,243.469h33.25v21.875h-33.25V243.469z M51.969,272.344h33.25
		v23.625H66.844c-8.219,0-14.875-6.656-14.875-14.875V272.344z M128,370.656H48v-16h80V370.656z M123.719,207.594v7v9.047v0.578
		v12.25v7v9.625v5.531v6.719v7v13.406v10.219h-31.5V285.75v-13.406v-7v-6.719v-5.531v-9.625v-7v-12.25v-0.578v-9.047v-7V200v-16.031
		h18.375h13.125h5.25h16.625h3.5c8.219,0,14.875,6.672,14.875,14.891v8.734h-18.375h-16.625H123.719z M130.719,236.469v-21.875
		h33.25v21.875H130.719z M163.969,243.469v21.875h-33.25v-21.875H163.969z M149.094,295.969h-18.375v-23.625h33.25v8.75
		C163.969,289.313,157.313,295.969,149.094,295.969z M240,370.656h-80v-16h80V370.656z M352,370.656h-80v-16h80V370.656z
		 M464,370.656h-80v-16h80V370.656z M464,314.656H224v-24h240V314.656z" style="fill: rgb(58, 171, 210);"></path>
	<path class="st0" d="M322.156,182.547c0-1.75-0.531-3.125-1.609-4.109c-1.063-0.984-2.516-1.469-4.359-1.469h-9.281v11.219h9.281
		c1.844,0,3.297-0.5,4.359-1.516C321.625,185.672,322.156,184.281,322.156,182.547z" style="fill: rgb(58, 171, 210);"></path>
</g>
</svg>
